# xmcd
#
# Track frame offsets:
#	150
#	15111
#	30866
#	44436
#	60357
#	83149
#	98396
#	115379
#	132727
#	150243
#
# Disc length: 2192 seconds
#
# Revision: 0
# Processed by: cddbd v1.5.2PL0 Copyright (c) Steve Scherf et al.
# Submitted via: EasyCDDAExtractor 12.0.1.1
#
DISCID=64088e0a
DTITLE=Michael Scott - Bring It On
DYEAR=1900
DGENRE=
TTITLE0=Bring It On
TTITLE1=I Call It Livin'
TTITLE2=I Hear You Now
TTITLE3=Leavin' And Gone
TTITLE4=Neverland
TTITLE5=Ray Ray's Juke Joint
TTITLE6=She Loves Me Like A Woman
TTITLE7=She's Everything I Need
TTITLE8=Somebody's Prayin' For Me
TTITLE9=What Are The Chances
EXTD=
EXTT0=
EXTT1=
EXTT2=
EXTT3=
EXTT4=
EXTT5=
EXTT6=
EXTT7=
EXTT8=
EXTT9=
PLAYORDER=
